<?xml version="1.0" encoding="utf-8"?>
<!-- Generator: Adobe Illustrator 16.0.0, SVG Export Plug-In . SVG Version: 6.00 Build 0)  -->
<!DOCTYPE svg PUBLIC "-//W3C//DTD SVG 1.1//EN" "http://www.w3.org/Graphics/SVG/1.1/DTD/svg11.dtd">
<svg version="1.1" id="Layer_1" xmlns="http://www.w3.org/2000/svg" xmlns:xlink="http://www.w3.org/1999/xlink" x="0px" y="0px"
	 width="41.5px" height="67px" viewBox="3.125 1.25 41.5 67" enable-background="new 3.125 1.25 41.5 67" xml:space="preserve">
<g id="horn_1_R">
	<path d="M21.813,30.452c0.949,0.333,1.245,1.973,0.646,3.656l0,0c-0.594,1.684-1.861,2.771-2.81,2.433c0,0-5.709-0.21-9.346-3.572
		c-2.838-2.621-4.473-4.9-5.286-7.758c-0.809-2.847-0.954-5.777,1.696-6.63l-0.116-0.007c3.123-0.826,4.52,1.883,5.19,3.603
		c0.671,1.719,1.396,3.845,2.899,5.444C16.189,29.225,21.813,30.452,21.813,30.452z"/>
	<path d="M27.286,49.717c0.802-0.048,1.53,1.069,1.611,2.49l0,0c0.083,1.424-0.511,2.616-1.313,2.665c0,0-3.399,1.503-6.625,0.942
		c-3.04-0.53-4.8-1.535-6.288-3.39c-1.478-1.846-1.569-4.002,0.116-5.448l-0.087,0.03c2.042-1.577,2.989,0.035,4.015,1.093
		c1.026,1.057,0.851,1.033,2.453,1.748C22.767,50.562,27.286,49.717,27.286,49.717z"/>
	<path d="M41.006,62.275c2.115,0.973,2.816,2.516,1.695,3.777c-1.123,1.264-2.311,1.307-5.611,0.28
		c-3.301-1.024-8.572-3.19-11.787-11.659c-5.416-14.264-6.358-27.506-6.483-30.055c-0.19-3.859,0.949-12.672,1.714-15.543
		c1.688-6.33,4.501-7.78,6.991-6.536l-0.077-0.087c2.808,1.598,1.462,6.943,0.945,8.714c-1.436,4.934-1.572,10.437-1.107,16.155
		c0.567,6.97,0.688,14.491,5.034,25.266C34.521,58.059,38.891,61.302,41.006,62.275z"/>
	<path d="M25.658,21.751c-0.949,0.337-1.245,1.977-0.646,3.66l0,0c0.594,1.683,1.861,2.77,2.81,2.428c0,0,5.709-0.21,9.345-3.57
		c2.838-2.624,4.473-4.9,5.287-7.758c0.809-2.847,0.953-5.777-1.697-6.63l0.117-0.007c-3.124-0.826-4.52,1.883-5.19,3.603
		c-0.671,1.718-1.396,3.844-2.899,5.444C31.281,20.523,25.658,21.751,25.658,21.751z"/>
	<path d="M28.06,37.82c-0.75,0.039-1.297,1.145-1.221,2.468l0,0c0.072,1.319,0.752,2.354,1.495,2.306c0,0,3.967,0.53,7.446-0.627
		c2.218-0.736,3.268-1.244,4.436-3.104c1.164-1.867,1.477-3.6-0.232-4.751l0.084,0.018c-1.923-0.886-3.203-0.062-4.035,1.021
		c-0.831,1.088-0.923,1.303-2.326,2.126C32.31,38.105,28.06,37.82,28.06,37.82z"/>
</g>
<g id="horn_1_L" display="none">
	<path display="inline" d="M84.169,17.202c-0.948,0.333-1.245,1.973-0.646,3.656l0,0c0.594,1.684,1.859,2.771,2.81,2.433
		c0,0,5.709-0.21,9.347-3.572c2.838-2.621,4.473-4.9,5.285-7.758c0.811-2.847,0.954-5.777-1.695-6.63l0.115-0.007
		c-3.123-0.826-4.52,1.883-5.189,3.603c-0.67,1.719-1.396,3.845-2.898,5.444C89.793,15.975,84.169,17.202,84.169,17.202z"/>
	<path display="inline" d="M83.575,38.823c-0.907,0.339-1.167,1.929-0.562,3.536l0,0c0.603,1.613,1.84,2.641,2.752,2.302
		c0,0,4.484-0.001,7.774-2.195c3.099-2.069,4.552-4.039,5.288-6.813c0.73-2.759-0.223-5.186-2.79-5.959l0.112-0.008
		c-3.025-0.746-3.284,1.497-3.9,3.166c-0.616,1.668-0.434,1.557-1.854,3.127C88.979,37.551,83.575,38.823,83.575,38.823z"/>
	<path display="inline" d="M66.727,63.275c-2.115,0.973-2.815,2.516-1.694,3.777c1.122,1.264,2.311,1.307,5.61,0.28
		c3.301-1.024,8.572-3.19,11.787-11.659c5.416-14.264,6.358-27.506,6.483-30.055c0.19-3.859-0.733-14.806-1.498-17.677
		c-1.688-6.33-4.502-7.78-6.992-6.536L80.5,1.32c-2.809,1.598-1.462,6.943-0.943,8.714c1.436,4.934,1.354,12.57,0.891,18.289
		c-0.567,6.97-0.688,14.491-5.034,25.266C73.211,59.059,68.842,62.302,66.727,63.275z"/>
	<path display="inline" d="M82.824,27.001c0.949,0.337,1.246,1.977,0.646,3.66l0,0c-0.595,1.683-1.861,2.77-2.81,2.428
		c0,0-5.71-0.21-9.347-3.57c-2.838-2.624-4.473-4.9-5.287-7.758c-0.809-2.847-0.952-5.777,1.697-6.63l-0.117-0.007
		c3.125-0.826,4.521,1.883,5.19,3.603c0.671,1.718,1.396,3.844,2.899,5.444C77.201,25.773,82.824,27.001,82.824,27.001z"/>
	<path display="inline" d="M83.014,42.385c0.674-0.025,1.254,0.92,1.293,2.109l0,0c0.041,1.188-0.482,2.168-1.152,2.186
		c0,0-3.508,0.795-6.713,0.041c-2.045-0.479-3.025-0.852-4.223-2.42c-1.191-1.576-1.611-3.102-0.176-4.271l-0.072,0.021
		c1.647-0.947,2.86-0.312,3.692,0.588c0.832,0.906,0.933,1.092,2.254,1.715C79.232,42.982,83.014,42.385,83.014,42.385z"/>
</g>
</svg>
