<?xml version="1.0" encoding="utf-8"?>
<!-- Generator: Adobe Illustrator 16.0.0, SVG Export Plug-In . SVG Version: 6.00 Build 0)  -->
<!DOCTYPE svg PUBLIC "-//W3C//DTD SVG 1.1//EN" "http://www.w3.org/Graphics/SVG/1.1/DTD/svg11.dtd">
<svg version="1.1" xmlns="http://www.w3.org/2000/svg" xmlns:xlink="http://www.w3.org/1999/xlink" x="0px" y="0px" width="90px"
	 height="90px" viewBox="0 0 90 90" enable-background="new 0 0 90 90" xml:space="preserve">
<g id="deer">
	<g id="horn_1_R">
		<path d="M15.628,24.329c0.495,0.173,0.65,1.029,0.337,1.907l0,0c-0.312,0.879-0.973,1.446-1.468,1.271c0,0-2.98-0.111-4.88-1.864
			c-1.482-1.37-2.334-2.559-2.76-4.051c-0.421-1.486-0.498-3.017,0.886-3.463l-0.061-0.003c1.631-0.432,2.359,0.982,2.71,1.88
			c0.351,0.897,0.729,2.009,1.513,2.843C12.691,23.687,15.628,24.329,15.628,24.329z"/>
		<path d="M18.486,34.386c0.418-0.024,0.799,0.56,0.841,1.301l0,0c0.043,0.743-0.266,1.365-0.686,1.392c0,0-1.775,0.783-3.458,0.49
			c-1.588-0.276-2.506-0.8-3.284-1.769c-0.772-0.965-0.819-2.09,0.062-2.845l-0.046,0.015c1.066-0.824,1.56,0.018,2.096,0.571
			c0.535,0.553,0.446,0.539,1.281,0.914C16.127,34.827,18.486,34.386,18.486,34.386z"/>
		<path d="M25.649,40.943c1.105,0.508,1.471,1.313,0.886,1.974c-0.586,0.66-1.206,0.683-2.93,0.146
			c-1.722-0.534-4.477-1.665-6.155-6.088c-2.827-7.449-3.32-14.362-3.385-15.693c-0.099-2.015,0.495-6.617,0.895-8.117
			c0.882-3.303,2.351-4.062,3.65-3.411l-0.04-0.046c1.466,0.834,0.764,3.625,0.493,4.55c-0.75,2.577-0.821,5.449-0.578,8.436
			c0.296,3.64,0.359,7.566,2.629,13.192C22.265,38.743,24.546,40.435,25.649,40.943z"/>
		<path d="M17.636,19.784c-0.495,0.177-0.65,1.033-0.338,1.912l0,0c0.312,0.878,0.973,1.446,1.469,1.267c0,0,2.98-0.107,4.878-1.862
			c1.483-1.372,2.336-2.559,2.763-4.051c0.422-1.486,0.497-3.018-0.888-3.462l0.062-0.003c-1.632-0.432-2.361,0.982-2.709,1.88
			c-0.352,0.897-0.729,2.008-1.514,2.843C20.572,19.142,17.636,19.784,17.636,19.784z"/>
		<path d="M18.891,28.175c-0.392,0.02-0.678,0.597-0.639,1.288l0,0c0.039,0.69,0.394,1.229,0.781,1.205c0,0,2.072,0.276,3.887-0.329
			c1.158-0.383,1.707-0.647,2.317-1.62c0.608-0.975,0.771-1.878-0.12-2.482l0.042,0.011c-1.003-0.462-1.672-0.033-2.106,0.533
			c-0.434,0.569-0.483,0.681-1.214,1.11C21.11,28.324,18.891,28.175,18.891,28.175z"/>
	</g>
	<path d="M83.745,62.222c0,12.182-9.874,22.053-22.05,22.053H31.16c-12.179,0-22.052-9.871-22.052-22.053l0,0
		c0-12.18,9.873-22.052,22.052-22.052h30.535C73.871,40.169,83.745,50.042,83.745,62.222L83.745,62.222z"/>
	<circle fill="#FFFFFF" cx="23.345" cy="54.109" r="4.365"/>
	<circle fill="#FFFFFF" cx="38.359" cy="54.109" r="5.64"/>
	<g id="horn_1_L">
		<path d="M46.813,16.191c-0.496,0.174-0.652,1.033-0.34,1.916l0,0c0.312,0.884,0.975,1.454,1.475,1.276c0,0,2.991-0.11,4.9-1.873
			c1.487-1.374,2.345-2.568,2.77-4.067c0.426-1.494,0.501-3.029-0.887-3.475l0.058-0.005c-1.636-0.433-2.367,0.987-2.72,1.888
			c-0.351,0.902-0.731,2.017-1.517,2.856C49.76,15.547,46.813,16.191,46.813,16.191z"/>
		<path d="M46.503,27.526c-0.477,0.177-0.614,1.012-0.296,1.854l0,0c0.317,0.845,0.965,1.384,1.443,1.207
			c0,0,2.349-0.001,4.076-1.151c1.626-1.085,2.385-2.119,2.772-3.572c0.382-1.446-0.119-2.719-1.464-3.124l0.06-0.004
			c-1.586-0.391-1.724,0.786-2.047,1.661c-0.323,0.874-0.228,0.816-0.971,1.638C49.335,26.859,46.503,27.526,46.503,27.526z"/>
		<path d="M37.669,40.346c-1.109,0.511-1.476,1.319-0.888,1.98c0.587,0.663,1.211,0.686,2.941,0.145
			c1.731-0.534,4.494-1.669,6.179-6.111c2.84-7.479,3.334-14.42,3.399-15.758c0.099-2.022-0.385-7.761-0.785-9.267
			c-0.885-3.32-2.36-4.081-3.666-3.428l0.04-0.045c-1.473,0.837-0.767,3.641-0.494,4.569c0.753,2.586,0.71,6.59,0.467,9.588
			c-0.296,3.654-0.36,7.597-2.64,13.246C41.069,38.135,38.778,39.836,37.669,40.346z"/>
		<path d="M46.108,21.329c0.496,0.176,0.654,1.036,0.339,1.918l0,0c-0.312,0.882-0.977,1.452-1.473,1.273
			c0,0-2.995-0.11-4.903-1.872c-1.487-1.376-2.345-2.569-2.771-4.067c-0.424-1.493-0.499-3.029,0.89-3.477l-0.062-0.003
			c1.64-0.433,2.371,0.987,2.721,1.889c0.352,0.9,0.733,2.014,1.52,2.853C43.16,20.685,46.108,21.329,46.108,21.329z"/>
		<path d="M46.207,29.394c0.354-0.013,0.657,0.482,0.68,1.106l0,0c0.021,0.622-0.253,1.137-0.605,1.145c0,0-1.839,0.418-3.52,0.023
			c-1.072-0.252-1.585-0.447-2.214-1.269c-0.624-0.827-0.844-1.627-0.092-2.239l-0.038,0.011c0.864-0.497,1.5-0.164,1.935,0.307
			c0.437,0.475,0.489,0.572,1.184,0.9C44.226,29.708,46.207,29.394,46.207,29.394z"/>
	</g>
</g>
<g id="bird" display="none">
	<path display="inline" d="M69.424,59.836C69.424,73.324,58.488,84.26,45,84.26l0,0c-13.49,0-24.424-10.936-24.424-24.424V39.21
		c0-13.488,10.934-24.424,24.424-24.424l0,0c13.488,0,24.424,10.936,24.424,24.424V59.836z"/>
	<path display="inline" fill="#FFFFFF" d="M40.687,36.069c0,2.85-2.305,5.157-5.153,5.157c-2.848,0-5.155-2.307-5.155-5.157
		c0-2.845,2.307-5.151,5.155-5.151C38.382,30.917,40.687,33.224,40.687,36.069z"/>
	<path display="inline" fill="#FFFFFF" d="M60.226,36.069c0,2.85-2.304,5.157-5.151,5.157c-2.849,0-5.155-2.307-5.155-5.157
		c0-2.845,2.307-5.151,5.155-5.151C57.922,30.917,60.226,33.224,60.226,36.069z"/>
	<polygon display="inline" points="30.515,19.4 34.313,4.203 40.555,17.229 	"/>
	<polygon display="inline" points="60.096,21.3 56.296,3.932 50.056,16.958 	"/>
	<polygon display="inline" fill="#FFFFFF" points="40.555,47.229 51.229,47.229 45.892,56.945 	"/>
</g>
</svg>
