<?xml version="1.0" encoding="utf-8"?>
<!-- Generator: Adobe Illustrator 16.0.0, SVG Export Plug-In . SVG Version: 6.00 Build 0)  -->
<!DOCTYPE svg PUBLIC "-//W3C//DTD SVG 1.1//EN" "http://www.w3.org/Graphics/SVG/1.1/DTD/svg11.dtd">
<svg version="1.1" id="Layer_1" xmlns="http://www.w3.org/2000/svg" xmlns:xlink="http://www.w3.org/1999/xlink" x="0px" y="0px"
	 width="42px" height="69px" viewBox="0 -1 42 69" enable-background="new 0 -1 42 69" xml:space="preserve">
<g id="horn_1_R">
	<path d="M18.869,29.292c0.986,0.346,1.294,2.049,0.67,3.797l0,0c-0.618,1.749-1.933,2.878-2.918,2.527c0,0-5.93-0.218-9.708-3.71
		c-2.948-2.722-4.646-5.089-5.49-8.058c-0.84-2.957-0.991-6,1.761-6.886l-0.12-0.007c3.244-0.858,4.695,1.956,5.391,3.742
		c0.697,1.786,1.45,3.994,3.011,5.655C13.028,28.017,18.869,29.292,18.869,29.292z"/>
	<path d="M24.555,49.302c0.832-0.05,1.589,1.111,1.672,2.587l0,0c0.088,1.479-0.529,2.718-1.363,2.769c0,0-3.53,1.561-6.881,0.979
		c-3.158-0.551-4.986-1.595-6.532-3.522c-1.535-1.918-1.629-4.157,0.121-5.657l-0.09,0.03c2.121-1.638,3.104,0.036,4.17,1.136
		c1.066,1.099,0.884,1.072,2.548,1.816C19.861,50.181,24.555,49.302,24.555,49.302z"/>
	<path d="M38.805,62.347c2.197,1.011,2.926,2.613,1.762,3.922c-1.167,1.314-2.4,1.359-5.829,0.291
		c-3.429-1.062-8.904-3.312-12.243-12.11c-5.625-14.816-6.604-28.571-6.734-31.218c-0.197-4.009,0.986-13.163,1.781-16.145
		c1.754-6.575,4.675-8.082,7.262-6.789l-0.08-0.09c2.916,1.66,1.519,7.212,0.98,9.051c-1.492,5.125-1.633,10.841-1.148,16.78
		c0.589,7.24,0.715,15.054,5.229,26.244C32.069,57.967,36.608,61.336,38.805,62.347z"/>
	<path d="M22.863,20.254c-0.986,0.35-1.294,2.054-0.672,3.802l0,0c0.617,1.748,1.934,2.877,2.921,2.522c0,0,5.93-0.218,9.706-3.708
		c2.948-2.726,4.648-5.09,5.492-8.059c0.842-2.957,0.99-6-1.763-6.887l0.121-0.007c-3.245-0.858-4.696,1.956-5.39,3.742
		c-0.696,1.784-1.451,3.993-3.011,5.655C28.704,18.979,22.863,20.254,22.863,20.254z"/>
	<path d="M25.358,36.945c-0.778,0.04-1.347,1.188-1.269,2.563l0,0c0.075,1.37,0.781,2.445,1.553,2.395c0,0,4.12,0.551,7.733-0.651
		c2.305-0.765,3.396-1.292,4.608-3.224c1.209-1.939,1.535-3.738-0.24-4.936l0.087,0.019c-1.998-0.92-3.326-0.064-4.19,1.06
		c-0.863,1.132-0.96,1.355-2.416,2.209C29.773,37.241,25.358,36.945,25.358,36.945z"/>
</g>
<g id="horn_1_L" display="none">
	<path display="inline" d="M84.169,17.202c-0.948,0.333-1.245,1.973-0.646,3.656l0,0c0.594,1.684,1.857,2.771,2.81,2.433
		c0,0,5.709-0.21,9.347-3.572c2.838-2.621,4.473-4.9,5.285-7.758c0.811-2.847,0.954-5.777-1.695-6.63l0.115-0.007
		c-3.123-0.826-4.52,1.883-5.189,3.603c-0.67,1.719-1.396,3.845-2.896,5.444C89.793,15.975,84.169,17.202,84.169,17.202z"/>
	<path display="inline" d="M83.575,38.823c-0.907,0.339-1.167,1.929-0.562,3.536l0,0c0.603,1.613,1.84,2.641,2.752,2.302
		c0,0,4.482-0.001,7.772-2.195c3.101-2.069,4.552-4.039,5.288-6.813c0.729-2.757-0.225-5.186-2.79-5.958l0.11-0.008
		c-3.023-0.746-3.283,1.497-3.898,3.166c-0.616,1.667-0.436,1.557-1.854,3.125C88.979,37.551,83.575,38.823,83.575,38.823z"/>
	<path display="inline" d="M66.727,63.275c-2.115,0.973-2.813,2.516-1.692,3.775c1.12,1.266,2.312,1.309,5.608,0.28
		c3.301-1.022,8.572-3.188,11.787-11.659c5.416-14.264,6.358-27.506,6.483-30.055c0.19-3.859-0.733-14.806-1.498-17.677
		c-1.688-6.33-4.502-7.78-6.992-6.536L80.5,1.32c-2.809,1.598-1.462,6.943-0.943,8.714c1.438,4.934,1.354,12.57,0.893,18.289
		c-0.567,6.97-0.688,14.491-5.034,25.266C73.211,59.059,68.842,62.302,66.727,63.275z"/>
	<path display="inline" d="M82.824,27.001c0.949,0.337,1.246,1.977,0.646,3.66l0,0c-0.597,1.683-1.861,2.77-2.812,2.428
		c0,0-5.71-0.21-9.349-3.57c-2.838-2.624-4.473-4.9-5.287-7.758c-0.809-2.847-0.95-5.777,1.697-6.63l-0.117-0.007
		c3.125-0.826,4.521,1.883,5.19,3.603c0.671,1.718,1.396,3.844,2.899,5.444C77.201,25.773,82.824,27.001,82.824,27.001z"/>
	<path display="inline" d="M83.014,42.385c0.674-0.025,1.254,0.92,1.293,2.109l0,0c0.041,1.188-0.48,2.168-1.152,2.186
		c0,0-3.508,0.795-6.713,0.041c-2.045-0.479-3.023-0.852-4.223-2.42c-1.191-1.576-1.611-3.102-0.176-4.271l-0.072,0.021
		c1.647-0.947,2.86-0.312,3.692,0.588c0.832,0.906,0.933,1.092,2.254,1.715C79.232,42.982,83.014,42.385,83.014,42.385z"/>
</g>
</svg>
