<?xml version="1.0" encoding="utf-8"?>
<!-- Generator: Adobe Illustrator 16.0.0, SVG Export Plug-In . SVG Version: 6.00 Build 0)  -->
<!DOCTYPE svg PUBLIC "-//W3C//DTD SVG 1.1//EN" "http://www.w3.org/Graphics/SVG/1.1/DTD/svg11.dtd">
<svg version="1.1" xmlns="http://www.w3.org/2000/svg" xmlns:xlink="http://www.w3.org/1999/xlink" x="0px" y="0px" width="90px"
	 height="90px" viewBox="0 0 90 90" enable-background="new 0 0 90 90" xml:space="preserve">
<g id="deer" display="none">
	<g id="horn_1_R" display="inline">
		<path d="M13.613,22.593c0.613,0.214,0.805,1.274,0.418,2.361l0,0c-0.386,1.088-1.205,1.79-1.818,1.573c0,0-3.69-0.137-6.041-2.308
			c-1.835-1.695-2.89-3.168-3.417-5.015c-0.521-1.84-0.616-3.734,1.097-4.287l-0.075-0.004c2.02-0.534,2.921,1.216,3.355,2.328
			c0.435,1.111,0.903,2.487,1.874,3.52C9.977,21.798,13.613,22.593,13.613,22.593z"/>
		<path d="M17.15,35.043c0.518-0.03,0.989,0.693,1.041,1.611l0,0c0.053,0.919-0.329,1.69-0.849,1.723c0,0-2.197,0.97-4.281,0.607
			c-1.966-0.342-3.103-0.991-4.065-2.19C8.04,35.6,7.981,34.207,9.072,33.273l-0.057,0.019c1.319-1.02,1.931,0.022,2.594,0.707
			c0.663,0.684,0.552,0.667,1.586,1.13C14.231,35.59,17.15,35.043,17.15,35.043z"/>
		<path d="M26.018,43.161c1.369,0.629,1.821,1.626,1.096,2.443c-0.726,0.818-1.493,0.845-3.627,0.181
			c-2.133-0.661-5.542-2.062-7.62-7.537c-3.499-9.222-4.109-17.781-4.19-19.427c-0.123-2.496,0.613-8.192,1.108-10.049
			c1.092-4.089,2.91-5.029,4.519-4.223l-0.049-0.057c1.815,1.033,0.946,4.488,0.61,5.632c-0.928,3.189-1.016,6.746-0.715,10.443
			c0.366,4.506,0.445,9.367,3.254,16.332C21.828,40.437,24.652,42.533,26.018,43.161z"/>
		<path d="M16.098,16.966c-0.613,0.219-0.805,1.279-0.418,2.367l0,0c0.385,1.087,1.204,1.79,1.819,1.568
			c0,0,3.689-0.133,6.039-2.305c1.836-1.699,2.893-3.168,3.42-5.016c0.522-1.84,0.615-3.735-1.099-4.286l0.076-0.004
			c-2.021-0.535-2.924,1.216-3.354,2.328c-0.435,1.111-0.902,2.486-1.874,3.519C19.732,16.172,16.098,16.966,16.098,16.966z"/>
		<path d="M17.651,27.354c-0.485,0.024-0.839,0.739-0.791,1.594l0,0c0.048,0.854,0.487,1.522,0.966,1.492
			c0,0,2.565,0.342,4.812-0.407c1.434-0.475,2.113-0.802,2.869-2.006c0.752-1.207,0.955-2.326-0.148-3.072l0.053,0.013
			c-1.242-0.572-2.07-0.04-2.608,0.66c-0.537,0.704-0.598,0.843-1.503,1.374C20.399,27.54,17.651,27.354,17.651,27.354z"/>
	</g>
	<path display="inline" d="M86.578,64.572c0,12.444-10.087,22.529-22.526,22.529H32.858c-12.442,0-22.528-10.085-22.528-22.529l0,0
		c0-12.442,10.086-22.528,22.528-22.528h31.194C76.491,42.044,86.578,52.13,86.578,64.572L86.578,64.572z"/>
	<path display="inline" fill="#FFFFFF" d="M27.83,59.285c0,2.786-2.255,5.042-5.042,5.042c-2.783,0-5.04-2.256-5.04-5.042
		c0-2.783,2.256-5.039,5.04-5.039C25.575,54.246,27.83,56.502,27.83,59.285z"/>
	<circle display="inline" fill="#FFFFFF" cx="40.128" cy="59.285" r="6.513"/>
	<g id="horn_1_L" display="inline">
		<path d="M52.219,12.52c-0.614,0.216-0.808,1.279-0.421,2.371l0,0c0.387,1.095,1.206,1.799,1.826,1.58c0,0,3.703-0.136,6.066-2.318
			c1.842-1.701,2.903-3.18,3.429-5.035c0.527-1.849,0.619-3.75-1.099-4.302l0.072-0.006c-2.025-0.536-2.932,1.223-3.367,2.337
			c-0.434,1.116-0.906,2.497-1.878,3.535C55.867,11.722,52.219,12.52,52.219,12.52z"/>
		<path d="M51.835,26.552c-0.591,0.22-0.761,1.252-0.367,2.296l0,0c0.394,1.046,1.194,1.714,1.787,1.493
			c0,0,2.908-0.001,5.046-1.425c2.014-1.343,2.953-2.623,3.432-4.422c0.474-1.79-0.146-3.366-1.812-3.868l0.073-0.005
			c-1.963-0.484-2.133,0.973-2.533,2.056c-0.4,1.082-0.281,1.01-1.201,2.029C55.341,25.726,51.835,26.552,51.835,26.552z"/>
		<path d="M40.898,42.422c-1.373,0.633-1.827,1.633-1.099,2.452c0.727,0.821,1.5,0.849,3.641,0.18
			c2.143-0.662,5.563-2.067,7.65-7.565c3.516-9.258,4.127-17.852,4.208-19.507c0.123-2.504-0.476-9.609-0.972-11.472
			c-1.096-4.111-2.922-5.052-4.538-4.244l0.049-0.055c-1.823,1.037-0.948,4.507-0.611,5.656c0.933,3.203,0.879,8.159,0.579,11.87
			c-0.367,4.524-0.446,9.405-3.269,16.398C45.107,39.685,42.271,41.791,40.898,42.422z"/>
		<path d="M51.347,18.88c0.614,0.218,0.809,1.283,0.418,2.375l0,0c-0.387,1.092-1.208,1.797-1.823,1.576
			c0,0-3.707-0.136-6.069-2.318c-1.841-1.703-2.903-3.18-3.431-5.035c-0.525-1.848-0.617-3.75,1.101-4.304l-0.076-0.004
			c2.029-0.536,2.935,1.223,3.369,2.339c0.435,1.114,0.908,2.494,1.881,3.532C47.696,18.083,51.347,18.88,51.347,18.88z"/>
		<path d="M51.469,28.864c0.438-0.016,0.813,0.597,0.841,1.369l0,0c0.025,0.771-0.313,1.408-0.749,1.417
			c0,0-2.276,0.517-4.357,0.028c-1.327-0.312-1.962-0.553-2.741-1.571c-0.772-1.023-1.045-2.015-0.114-2.771l-0.046,0.013
			c1.069-0.615,1.856-0.203,2.396,0.38c0.541,0.588,0.605,0.708,1.465,1.114C49.015,29.252,51.469,28.864,51.469,28.864z"/>
	</g>
</g>
<g id="bird">
	<path d="M69.424,59.836C69.424,73.324,58.488,84.26,45,84.26l0,0c-13.49,0-24.424-10.936-24.424-24.424V39.21
		c0-13.488,10.934-24.424,24.424-24.424l0,0c13.488,0,24.424,10.936,24.424,24.424V59.836z"/>
	<path fill="#FFFFFF" d="M40.687,36.069c0,2.85-2.305,5.157-5.153,5.157c-2.848,0-5.155-2.307-5.155-5.157
		c0-2.845,2.307-5.151,5.155-5.151C38.382,30.917,40.687,33.224,40.687,36.069z"/>
	<path fill="#FFFFFF" d="M60.226,36.069c0,2.85-2.304,5.157-5.151,5.157c-2.849,0-5.155-2.307-5.155-5.157
		c0-2.845,2.307-5.151,5.155-5.151C57.922,30.917,60.226,33.224,60.226,36.069z"/>
	<polygon points="30.515,19.4 34.313,4.203 40.555,17.229 	"/>
	<polygon points="60.096,21.3 56.296,3.932 50.056,16.958 	"/>
	<polygon fill="#FFFFFF" points="40.555,47.229 51.229,47.229 45.892,56.945 	"/>
</g>
</svg>
